<svg width="194" height="65" viewBox="0 0 194 65" fill="none" xmlns="http://www.w3.org/2000/svg">
<path d="M0 3V40.5C0 42.1569 1.34315 43.5 3 43.5H21C22.6569 43.5 24 44.8431 24 46.5V61.5C24 63.1569 25.3431 64.5 27 64.5H99.5C101.157 64.5 102.5 63.1569 102.5 61.5V46.5C102.5 44.8431 103.843 43.5 105.5 43.5H116C117.657 43.5 119 44.8431 119 46.5V61.5C119 63.1569 120.343 64.5 122 64.5H190.5C192.157 64.5 193.5 63.1569 193.5 61.5V24.5C193.5 22.8431 192.157 21.5 190.5 21.5H172C170.343 21.5 169 20.1569 169 18.5V3C169 1.34315 167.657 0 166 0H94C92.3431 0 91 1.34315 91 3V18.5C91 20.1569 89.6569 21.5 88 21.5H78C76.3431 21.5 75 20.1569 75 18.5V3C75 1.34315 73.6569 0 72 0H3C1.34315 0 0 1.34314 0 3Z" fill="#F2FF70"/>
</svg>
